<svg xmlns="http://www.w3.org/2000/svg" viewBox="0 0 64 64" role="img" aria-label="Starforge mark">
  <defs>
    <radialGradient id="bg" cx="30%" cy="24%" r="82%">
      <stop offset="0" stop-color="#2b2114"/>
      <stop offset="0.58" stop-color="#141009"/>
      <stop offset="1" stop-color="#090806"/>
    </radialGradient>
    <linearGradient id="star" x1="14" y1="10" x2="50" y2="54" gradientUnits="userSpaceOnUse">
      <stop offset="0" stop-color="#f4d6a0"/>
      <stop offset="0.56" stop-color="#edba68"/>
      <stop offset="1" stop-color="#8a6d3b"/>
    </linearGradient>
  </defs>
  <rect x="4" y="4" width="56" height="56" rx="15" fill="url(#bg)"/>
  <path d="M32 9l5.8 16.2L55 32l-17.2 6.8L32 55l-5.8-16.2L9 32l17.2-6.8L32 9Z" fill="url(#star)"/>
  <path d="M32 16l3.6 11.9L48 32l-12.4 4.1L32 48l-3.6-11.9L16 32l12.4-4.1L32 16Z" fill="#141009" opacity="0.9"/>
  <circle cx="32" cy="32" r="5.3" fill="#edba68"/>
  <path d="M32 20v24M20 32h24" stroke="#f4d6a0" stroke-width="1.6" stroke-linecap="round" opacity="0.72"/>
  <rect x="4.75" y="4.75" width="54.5" height="54.5" rx="14.25" fill="none" stroke="#edba68" stroke-opacity="0.28" stroke-width="1.5"/>
</svg>
